<svg xmlns="http://www.w3.org/2000/svg" xmlns:xlink="http://www.w3.org/1999/xlink" version="1.1" width="3162.3083859332733" 
height="700" viewBox="0 0 3162 700">
    
    <g transform="scale(8.115419296663662) translate(10, 10)">
        <defs id="SvgjsDefs1016"></defs><g id="SvgjsG1017" featureKey="LwVBM5-0" transform="matrix(0.9746588693957114,0,0,0.9746588693957114,-9.288498765079133,-4.902532923291301)" fill="#c7ae6a"><path xmlns="http://www.w3.org/2000/svg" d="M14.03,50.03l36,36v-4.5l31.5-31.5l-31.5-31.5v-4.5L14.03,50.03 M9.53,50.03l40.5-40.5v-4.5l45,45l-45,45v-4.5  L9.53,50.03" style="fill-rule: evenodd; clip-rule: evenodd"></path><path xmlns="http://www.w3.org/2000/svg" d="M50.03,45.53v-4.5l-9,9l9,9v-4.5l4.5-4.5L50.03,45.53 M68.03,50.03l-18,18v-4.5l-13.5-13.5l13.5-13.5v-4.5  L68.03,50.03" style="fill-rule: evenodd; clip-rule: evenodd"></path><polyline xmlns="http://www.w3.org/2000/svg" points="27.53,50.03 50.03,72.53 50.03,77.03 23.03,50.03 50.03,23.03 50.03,27.53 27.53,50.03 " style="fill-rule: evenodd; clip-rule: evenodd"></polyline></g><g id="SvgjsG1018" featureKey="YhTCwJ-0" transform="matrix(2.762155236361184,0,0,2.762155236361184,66.0,7.73457414525592)" fill="#c7ae6a"><path d="M10.800781 5.888672 l3.115234 0 l-5.214844 14.111328 l-3.222656 0 l-5.185547 -14.111328 l3.105469 0 l3.701172 10.693359 z M25.107422 14.833984 l-0.029297 0.673828 l-7.441406 0 c0.117188 1.669922 1.230469 2.470703 2.568359 2.470703 c1.005859 0 1.787109 -0.46875 2.167969 -1.357422 l2.578125 0.380859 c-0.664062 2.03125 -2.470703 3.193359 -4.726562 3.193359 c-3.242187 0 -5.361328 -1.914062 -5.361328 -5.214844 s2.177734 -5.234375 5.273438 -5.234375 c2.841797 0 4.960938 1.572266 4.970703 5.087891 z M20.15625 11.738281 c-1.279297 0 -2.167969 0.595703 -2.441406 1.933594 l4.609375 0 c-0.146484 -1.279297 -1.015625 -1.933594 -2.167969 -1.933594 z M29.941407 11.552734 c0.507813 -0.888672 1.826172 -1.708984 3.28125 -1.708984 l0 2.509766 c-2.128906 0 -3.144531 0.625 -3.144531 2.753906 l0 4.892578 l-2.832031 0 l0 -10.039062 l2.695313 0 l0 1.591797 z M41.523438 9.960938 l2.8125 0 l0 10.039063 l-2.666016 0 l-0.068359 -1.210937 c-0.703125 0.888672 -1.816406 1.40625 -3.193359 1.40625 c-2.412109 0 -3.740234 -1.259766 -3.740234 -3.476562 l0 -6.757812 l2.822266 0 l0 6.152344 c0 1.328125 0.830078 1.816406 1.806641 1.816406 c1.162109 0 2.216797 -0.585937 2.226563 -2.431641 l0 -5.537109 z M59.140625 9.765625 c2.148438 0 3.535156 1.09375 3.535156 3.154297 l0 7.080078 l-2.8125 0 l0 -6.279297 c0 -1.181641 -0.742187 -1.699219 -1.582031 -1.699219 c-1.005859 0 -1.894531 0.576172 -1.894531 2.314453 l0 5.664063 l-2.841797 0 l0 -6.25 c0 -1.201172 -0.722656 -1.728516 -1.611328 -1.728516 c-0.976562 0 -1.884766 0.576172 -1.884766 2.460938 l0 5.517578 l-2.802734 0 l0 -10.039062 l2.802734 0 l0 1.181641 c0.664063 -0.888672 1.679688 -1.376953 2.910156 -1.376953 c1.455078 0 2.548828 0.527344 3.076172 1.503906 c0.703125 -1.005859 1.777344 -1.503906 3.105469 -1.503906 z M68.710937 17.412109 l4.423828 0 l0 2.587891 l-7.353516 0 l0 -14.111328 l2.929688 0 l0 11.523438 z M84.44336 14.833984 l-0.029297 0.673828 l-7.441406 0 c0.117188 1.669922 1.230469 2.470703 2.568359 2.470703 c1.005859 0 1.787109 -0.46875 2.167969 -1.357422 l2.578125 0.380859 c-0.664062 2.03125 -2.470703 3.193359 -4.726562 3.193359 c-3.242187 0 -5.361328 -1.914062 -5.361328 -5.214844 s2.177734 -5.234375 5.273438 -5.234375 c2.841797 0 4.960938 1.572266 4.970703 5.087891 z M79.492188 11.738281 c-1.279297 0 -2.167969 0.595703 -2.441406 1.933594 l4.609375 0 c-0.146484 -1.279297 -1.015625 -1.933594 -2.167969 -1.933594 z M85.205078 20 l4.121094 -5.029297 l-4.121094 -5.009766 l3.515625 0 l2.304688 3.164063 l2.324219 -3.164062 l3.486328 0 l-4.130859 5.019531 l4.130859 5.019531 l-3.486328 0 l-2.304687 -3.144531 l-2.314453 3.144531 l-3.525391 0 z"></path></g><text x="95.8" y="78" fill="#c7ae6a" font-family="Roboto, sans-serif" font-size="11" letter-spacing="0.5" textLength="225" lengthAdjust="spacing">Ciência aplicada à verdade dos fatos</text>
    </g>
</svg>